# xmcd CD database file
#
# Track frame offsets:
#	150
#	17300
#	38997
#	61502
#
# Disc length: 1399 seconds
#
# Revision: 0
# Processed by: cddbd v1.5PL3 Copyright (c) Steve Scherf et al.
# Submitted via: CDex 1.51
#
DISCID=20057504
DTITLE=Calyn - Tears
DYEAR=2000
DGENRE=JPop
TTITLE0=Tears
TTITLE1=Tears (Gomi's Lair Club Radio Edit)
TTITLE2=Stay
TTITLE3=Stay (Joe Clausell Remix)
EXTD=YEAR: 2000
EXTT0=
EXTT1=
EXTT2=
EXTT3=
PLAYORDER=
